<svg width="128" height="25" viewBox="0 0 128 25" fill="none" xmlns="http://www.w3.org/2000/svg">
<path d="M12.8932 13.7214L13.5875 9.30671H9.24622V6.4419C9.24622 5.23413 9.85266 4.05686 11.797 4.05686H13.7706V0.298249C13.7706 0.298249 11.9796 0 10.2672 0C6.69202 0 4.3551 2.11443 4.3551 5.94212V9.30671H0.380981V13.7214H4.3551V24.3936H9.24622V13.7214H12.8932Z" fill="white"/>
<path d="M127.381 13.435C127.381 19.8373 123.211 24.3936 117.053 24.3936C111.149 24.3936 106.381 19.3803 106.381 13.1726C106.381 6.96489 111.149 1.95166 117.053 1.95166C119.928 1.95166 122.346 3.06018 124.209 4.88811L121.305 7.82456C117.505 3.96962 110.439 6.86535 110.439 13.1726C110.439 17.0864 113.413 20.2581 117.053 20.2581C121.279 20.2581 122.863 17.0728 123.112 15.4213H117.053V11.5619H127.213C127.312 12.1365 127.381 12.6885 127.381 13.435Z" fill="white"/>
<path d="M80.327 7.15317C77.2216 7.15317 74.7167 9.5973 74.7167 12.6274C74.7167 15.6576 77.2216 18.1017 80.327 18.1017C83.4325 18.1017 85.9374 15.6576 85.9374 12.6274C85.9374 9.5973 83.4325 7.15317 80.327 7.15317ZM80.327 16.1864C78.3202 16.1864 76.6796 14.5904 76.6796 12.6274C76.6796 10.6645 78.3153 9.06845 80.327 9.06845C82.3387 9.06845 83.9745 10.6645 83.9745 12.6274C83.9745 14.5904 82.3339 16.1864 80.327 16.1864ZM87.4755 6.92924C87.4755 7.63914 86.8895 8.2061 86.1669 8.2061C85.4393 8.2061 84.8583 7.63437 84.8583 6.92924C84.8583 6.22412 85.4442 5.65239 86.1669 5.65239C86.8895 5.65239 87.4755 6.22412 87.4755 6.92924ZM91.1913 8.22516C91.1083 6.51474 90.7079 4.99967 89.4237 3.7514C88.1444 2.50314 86.5917 2.11246 84.8387 2.0267C83.0321 1.92665 77.6171 1.92665 75.8104 2.0267C74.0624 2.10769 72.5096 2.49837 71.2255 3.74664C69.9413 4.99491 69.5458 6.50998 69.4579 8.22039C69.3553 9.98321 69.3553 15.2669 69.4579 17.0297C69.5409 18.7401 69.9413 20.2552 71.2255 21.5035C72.5096 22.7517 74.0575 23.1424 75.8104 23.2282C77.6171 23.3282 83.0321 23.3282 84.8387 23.2282C86.5917 23.1472 88.1444 22.7565 89.4237 21.5035C90.703 20.2552 91.1034 18.7401 91.1913 17.0297C91.2938 15.2669 91.2938 9.98798 91.1913 8.22516ZM88.8573 18.9212C88.4764 19.855 87.7391 20.5744 86.7772 20.9508C85.3368 21.5082 81.9188 21.3796 80.327 21.3796C78.7352 21.3796 75.3124 21.5035 73.8768 20.9508C72.9198 20.5792 72.1825 19.8598 71.7968 18.9212C71.2255 17.5157 71.3573 14.1806 71.3573 12.6274C71.3573 11.0743 71.2303 7.73442 71.7968 6.3337C72.1776 5.39988 72.9149 4.68046 73.8768 4.30407C75.3173 3.74664 78.7352 3.87528 80.327 3.87528C81.9188 3.87528 85.3417 3.7514 86.7772 4.30407C87.7343 4.67569 88.4716 5.39511 88.8573 6.3337C89.4286 7.73919 89.2968 11.0743 89.2968 12.6274C89.2968 14.1806 89.4286 17.5205 88.8573 18.9212Z" fill="white"/>
<path d="M53.8111 7.86475C53.827 8.08144 53.827 8.29817 53.827 8.51485C53.827 15.124 48.6716 22.7393 39.249 22.7393C36.3461 22.7393 33.6494 21.9189 31.381 20.495C31.7934 20.5414 32.19 20.5568 32.6183 20.5568C35.0135 20.5568 37.2185 19.7675 38.9793 18.4209C36.7268 18.3744 34.8391 16.935 34.1887 14.9538C34.506 15.0002 34.8232 15.0311 35.1564 15.0311C35.6164 15.0311 36.0764 14.9692 36.5047 14.8609C34.157 14.3965 32.3962 12.3844 32.3962 9.95431V9.89242C33.0782 10.2639 33.8715 10.4961 34.7121 10.527C33.3321 9.62924 32.4279 8.09692 32.4279 6.36336C32.4279 5.43469 32.6817 4.58339 33.1259 3.84043C35.6481 6.87415 39.4393 8.85531 43.6905 9.07204C43.6112 8.70057 43.5636 8.31365 43.5636 7.92669C43.5636 5.17155 45.8479 2.92725 48.6874 2.92725C50.1626 2.92725 51.4951 3.53089 52.431 4.50602C53.589 4.28933 54.6994 3.8714 55.6829 3.29872C55.3022 4.45961 54.4932 5.43473 53.4304 6.05382C54.4615 5.94552 55.4608 5.66685 56.3809 5.27994C55.683 6.2705 54.8105 7.15272 53.8111 7.86475Z" fill="white"/>
</svg>
